<svg width="327" height="222" viewBox="0 0 327 222" fill="none" xmlns="http://www.w3.org/2000/svg">
<path d="M246.408 101.426V75.9284C246.408 73.3861 248.476 71.3178 251.018 71.3178H267.699C270.241 71.3178 272.309 73.3861 272.309 75.9284V101.426C272.309 103.969 270.241 106.037 267.699 106.037H251.018C248.476 106.037 246.408 103.969 246.408 101.426Z" fill="#0185CD"/>
<path d="M254.95 82.3398H263.767V80.1354H254.95V82.3398Z" fill="#3F3D56"/>
<path d="M257.154 78.4821H261.563V71.3178H257.154V78.4821Z" fill="#3F3D56"/>
<path d="M257.154 106.037H261.563V98.8728H257.154V106.037Z" fill="#3F3D56"/>
<path d="M234.559 102.457H209.061C206.518 102.457 204.45 100.389 204.45 97.8464V81.1659C204.45 78.6236 206.518 76.5553 209.061 76.5553H234.559C237.101 76.5553 239.169 78.6236 239.169 81.1659V97.8464C239.169 100.389 237.101 102.457 234.559 102.457Z" fill="#0185CD"/>
<path d="M226.77 80.1375H217.952V82.3419H226.77V80.1375Z" fill="#3F3D56"/>
<path d="M211.614 91.7106V87.3018H204.45V91.7106H211.614Z" fill="#3F3D56"/>
<path d="M239.169 91.7105V87.3018H232.005V91.7105H239.169Z" fill="#3F3D56"/>
<path d="M27.7237 150.137L23.467 125.307C21.5756 114.273 29.7419 104.063 40.9213 103.484L101.604 100.341L116.086 76.4721C118.006 73.3077 121.439 71.3753 125.14 71.3753H168.743C172.17 71.3753 175.066 73.9168 175.51 77.3152L176.618 96.4144L285.322 96.7399L298.997 141.806L286.304 141.187L286.955 154.857L270.357 155.507L264.823 139.862C263.781 136.916 259.216 133.594 254.47 130.815C243.832 124.584 230.164 126.584 222.113 135.921C220.214 138.124 218.886 140.419 218.515 142.571L216.004 157.135L94.2809 155.182L78.3279 132.866C73.6147 127.737 51.3654 125.853 49.3617 132.866L37.3248 150.626L27.7237 150.137Z" fill="#E6E6E6"/>
<path d="M160.023 85.8994L163.605 102.782L118.04 103.759L127.663 83.0967C128.536 81.2223 130.453 80.0586 132.518 80.1484L154.353 81.0977C157.117 81.2179 159.449 83.193 160.023 85.8994Z" fill="white"/>
<path d="M111.856 102.457L120.969 79.0236L118.583 76.6378L103.719 99.2023L106.739 103.759L111.856 102.457Z" fill="white"/>
<path d="M242.367 178.615C254.23 178.615 263.847 168.998 263.847 157.135C263.847 145.271 254.23 135.654 242.367 135.654C230.503 135.654 220.886 145.271 220.886 157.135C220.886 168.998 230.503 178.615 242.367 178.615Z" fill="#3F3D56"/>
<path d="M227.558 157.135C227.558 148.969 234.201 142.326 242.367 142.326C250.532 142.326 257.175 148.969 257.175 157.135C257.175 165.3 250.532 171.943 242.367 171.943C234.201 171.943 227.558 165.3 227.558 157.135ZM227.884 157.135C227.884 165.121 234.381 171.618 242.367 171.618C250.353 171.618 256.85 165.121 256.85 157.135C256.85 149.149 250.353 142.652 242.367 142.652C234.381 142.652 227.884 149.149 227.884 157.135Z" fill="white"/>
<path d="M229.674 157.135C229.674 164.145 235.356 169.828 242.367 169.828C249.377 169.828 255.06 164.145 255.06 157.135C255.06 150.125 249.377 144.442 242.367 144.442C235.356 144.442 229.674 150.125 229.674 157.135ZM250.618 154.095L248.369 155.561L247.505 154.235L250.618 154.095ZM247.194 161.55L247.793 160.085L249.679 162.566L247.194 161.55ZM241.435 166.573L243.018 163.889V166.573H241.435ZM241.435 151.032L243.018 148.347V151.032H241.435ZM234.404 162.566L236.29 160.085L236.889 161.55L234.404 162.566ZM233.465 154.095L236.578 154.235L235.714 155.561L233.465 154.095Z" fill="#E6E6E6"/>
<path d="M62.06 178.615C73.9234 178.615 83.5406 168.998 83.5406 157.135C83.5406 145.271 73.9234 135.654 62.06 135.654C50.1966 135.654 40.5795 145.271 40.5795 157.135C40.5795 168.998 50.1966 178.615 62.06 178.615Z" fill="#3F3D56"/>
<path d="M47.2515 157.135C47.2515 148.969 53.8945 142.326 62.06 142.326C70.2255 142.326 76.8686 148.969 76.8686 157.135C76.8686 165.3 70.2255 171.943 62.06 171.943C53.8945 171.943 47.2515 165.3 47.2515 157.135ZM47.5769 157.135C47.5769 165.121 54.074 171.618 62.06 171.618C70.0461 171.618 76.5432 165.121 76.5432 157.135C76.5432 149.149 70.0461 142.652 62.06 142.652C54.074 142.652 47.5769 149.149 47.5769 157.135Z" fill="white"/>
<path d="M49.3669 157.135C49.3669 164.145 55.0498 169.828 62.06 169.828C69.0702 169.828 74.7531 164.145 74.7531 157.135C74.7531 150.125 69.0702 144.442 62.06 144.442C55.0498 144.442 49.3669 150.125 49.3669 157.135ZM70.3109 154.095L68.062 155.561L67.1979 154.235L70.3109 154.095ZM66.8871 161.55L67.486 160.085L69.3719 162.566L66.8871 161.55ZM61.1285 166.573L62.7109 163.889V166.573H61.1285ZM61.1285 151.032L62.7109 148.347V151.032H61.1285ZM54.0972 162.566L55.983 160.085L56.582 161.55L54.0972 162.566ZM53.1582 154.095L56.2712 154.235L55.4071 155.561L53.1582 154.095Z" fill="#E6E6E6"/>
<path d="M151.725 111.407H164.093V108.804H151.725V111.407Z" fill="#3F3D56"/>
<path d="M326.045 162.519C325.93 162.167 325.056 162.322 324.972 162.006C324.889 161.692 325.727 161.428 326.37 160.542C326.486 160.383 327.217 159.376 326.936 158.952C326.405 158.15 322.709 160.149 321.822 159.027C321.627 158.781 321.547 158.358 320.967 157.572C320.737 157.259 320.588 157.108 320.412 157.112C320.161 157.118 320.071 157.432 319.676 158.001C319.085 158.854 318.871 158.747 318.482 159.446C318.192 159.965 318.158 160.296 317.949 160.316C317.654 160.343 317.532 159.697 317.172 159.672C316.803 159.647 316.435 160.285 316.252 160.784C315.91 161.719 316.122 162.435 316.169 163.147C316.22 163.922 316.1 165.056 315.258 166.511L307.32 179.159C309.025 176.581 313.864 169.55 315.814 166.971C316.377 166.226 316.982 165.479 317.913 165.338C318.809 165.203 319.9 165.646 321.422 165.62C321.6 165.617 322.095 165.603 322.215 165.34C322.315 165.124 322.068 164.935 322.157 164.731C322.278 164.458 322.82 164.575 323.559 164.394C324.081 164.266 324.435 164.054 324.739 163.872C324.831 163.817 326.199 162.989 326.045 162.519Z" fill="#F2F2F2"/>
<path d="M305.252 165.472C305.046 165.427 304.87 165.901 304.691 165.851C304.513 165.801 304.625 165.314 304.376 164.743C304.331 164.64 304.048 163.99 303.759 164.006C303.212 164.035 303.127 166.426 302.32 166.537C302.143 166.562 301.912 166.479 301.359 166.537C301.139 166.56 301.022 166.589 300.973 166.677C300.904 166.802 301.032 166.937 301.197 167.295C301.445 167.831 301.331 167.905 301.562 168.298C301.733 168.589 301.886 168.702 301.835 168.81C301.763 168.963 301.411 168.836 301.295 169.006C301.176 169.179 301.383 169.544 301.575 169.778C301.935 170.216 302.348 170.318 302.711 170.501C303.106 170.699 303.628 171.085 304.099 171.918L308.017 179.464C307.243 177.883 305.189 173.479 304.485 171.778C304.282 171.287 304.09 170.775 304.29 170.277C304.482 169.798 305.014 169.391 305.441 168.636C305.49 168.548 305.626 168.301 305.532 168.166C305.454 168.055 305.29 168.122 305.216 168.019C305.117 167.881 305.331 167.648 305.455 167.233C305.543 166.94 305.541 166.706 305.54 166.504C305.539 166.443 305.527 165.533 305.252 165.472Z" fill="#F2F2F2"/>
<path d="M309.16 167.314L309.284 166.177L309.359 166.105C309.709 165.775 309.927 165.425 310.009 165.065C310.022 165.008 310.032 164.95 310.043 164.891C310.083 164.657 310.134 164.367 310.359 164.065C310.485 163.897 310.817 163.517 311.16 163.65C311.253 163.684 311.316 163.744 311.359 163.808C311.37 163.797 311.381 163.786 311.393 163.774C311.541 163.63 311.645 163.577 311.745 163.526C311.822 163.487 311.901 163.447 312.035 163.34C312.094 163.293 312.141 163.25 312.181 163.215C312.301 163.107 312.455 162.981 312.666 163.031C312.889 163.092 312.966 163.306 313.017 163.447C313.108 163.699 313.136 163.872 313.154 163.987C313.161 164.029 313.169 164.076 313.175 164.091C313.224 164.215 313.838 164.247 314.069 164.26C314.589 164.288 315.038 164.313 315.146 164.668C315.224 164.923 315.062 165.201 314.652 165.516C314.524 165.614 314.396 165.681 314.285 165.732C314.354 165.796 314.408 165.884 314.411 166.004C314.419 166.288 314.128 166.506 313.546 166.653C313.401 166.69 313.207 166.739 312.953 166.726C312.833 166.72 312.728 166.702 312.638 166.685C312.625 166.736 312.601 166.789 312.556 166.839C312.427 166.987 312.218 167.025 311.934 166.942C311.621 166.854 311.373 166.736 311.155 166.631C310.964 166.54 310.799 166.463 310.661 166.441C310.404 166.405 310.165 166.564 309.878 166.775L309.16 167.314Z" fill="#F2F2F2"/>
<path d="M311.21 160.839L310.079 161.008L309.991 160.953C309.583 160.699 309.189 160.576 308.82 160.588C308.761 160.59 308.702 160.595 308.643 160.6C308.406 160.619 308.112 160.644 307.763 160.503C307.569 160.424 307.117 160.199 307.158 159.833C307.168 159.735 307.211 159.659 307.261 159.601C307.248 159.593 307.234 159.585 307.22 159.577C307.043 159.47 306.965 159.383 306.891 159.299C306.834 159.235 306.775 159.169 306.637 159.066C306.576 159.021 306.523 158.986 306.479 158.957C306.344 158.868 306.184 158.751 306.178 158.534C306.181 158.302 306.368 158.174 306.491 158.089C306.712 157.937 306.872 157.866 306.979 157.819C307.018 157.802 307.061 157.782 307.075 157.773C307.182 157.694 307.057 157.092 307.011 156.865C306.906 156.355 306.816 155.914 307.133 155.719C307.359 155.58 307.669 155.666 308.078 155.983C308.205 156.081 308.303 156.188 308.38 156.283C308.425 156.2 308.496 156.125 308.611 156.091C308.884 156.012 309.169 156.238 309.458 156.764C309.531 156.894 309.627 157.07 309.68 157.319C309.705 157.437 309.713 157.543 309.72 157.634C309.772 157.634 309.83 157.644 309.89 157.674C310.066 157.762 310.155 157.954 310.146 158.25C310.141 158.575 310.089 158.845 310.044 159.083C310.004 159.29 309.971 159.469 309.985 159.608C310.016 159.866 310.23 160.057 310.507 160.281L311.21 160.839Z" fill="#F2F2F2"/>
<path d="M311.362 157.443L311.485 156.306L311.561 156.234C311.91 155.904 312.129 155.554 312.211 155.194C312.224 155.137 312.234 155.079 312.244 155.02C312.285 154.786 312.336 154.496 312.561 154.194C312.686 154.026 313.019 153.646 313.362 153.779C313.455 153.813 313.517 153.873 313.561 153.937C313.572 153.926 313.583 153.915 313.595 153.903C313.743 153.759 313.847 153.706 313.946 153.655C314.023 153.616 314.102 153.576 314.237 153.469C314.295 153.422 314.343 153.379 314.382 153.344C314.503 153.236 314.657 153.11 314.868 153.16C315.091 153.221 315.168 153.435 315.219 153.576C315.31 153.828 315.338 154.001 315.356 154.116C315.363 154.158 315.37 154.205 315.376 154.22C315.425 154.344 316.04 154.376 316.271 154.389C316.79 154.417 317.24 154.442 317.348 154.797C317.426 155.052 317.264 155.33 316.854 155.645C316.726 155.743 316.598 155.81 316.487 155.861C316.555 155.925 316.61 156.013 316.613 156.133C316.621 156.417 316.329 156.635 315.748 156.782C315.603 156.819 315.409 156.868 315.154 156.855C315.034 156.849 314.929 156.831 314.84 156.814C314.827 156.865 314.802 156.918 314.758 156.968C314.629 157.116 314.419 157.154 314.136 157.071C313.822 156.983 313.575 156.865 313.356 156.76C313.165 156.669 313.001 156.592 312.863 156.57C312.606 156.534 312.367 156.693 312.08 156.904L311.362 157.443Z" fill="#F2F2F2"/>
<path d="M307.695 179.224L307.495 179.027L307.217 178.997C307.219 178.971 307.217 178.91 307.215 178.815C307.204 178.292 307.171 176.7 307.393 174.254C307.547 172.547 307.806 170.815 308.161 169.103C308.517 167.389 308.886 166.114 309.183 165.089C309.407 164.316 309.633 163.583 309.853 162.868C310.442 160.96 310.998 159.157 311.342 157.101C311.419 156.642 311.579 155.687 311.252 154.559C311.062 153.905 310.736 153.29 310.284 152.73L310.722 152.377C311.22 152.995 311.58 153.677 311.791 154.403C312.154 155.653 311.98 156.694 311.896 157.195C311.546 159.287 310.985 161.107 310.39 163.034C310.171 163.745 309.946 164.475 309.723 165.245C309.429 166.261 309.063 167.525 308.712 169.217C308.36 170.908 308.105 172.619 307.952 174.305C307.733 176.72 307.766 178.288 307.777 178.803C307.782 179.078 307.784 179.135 307.695 179.224Z" fill="#F2F2F2"/>
<path d="M309.084 153.377C309.062 153.372 309.039 153.366 309.016 153.36C308.555 153.23 308.185 152.854 307.916 152.242C307.79 151.955 307.761 151.652 307.701 151.048C307.692 150.954 307.651 150.483 307.701 149.859C307.734 149.45 307.778 149.287 307.889 149.158C308.013 149.014 308.179 148.932 308.354 148.891C308.359 148.837 308.377 148.784 308.412 148.734C308.556 148.526 308.798 148.612 308.929 148.656C308.995 148.68 309.078 148.71 309.17 148.726C309.316 148.751 309.403 148.725 309.535 148.687C309.66 148.651 309.817 148.605 310.033 148.609C310.461 148.615 310.777 148.807 310.881 148.87C311.43 149.2 311.62 149.726 311.839 150.336C311.883 150.458 312.027 150.899 312.061 151.468C312.085 151.878 312.031 152.046 311.97 152.166C311.844 152.413 311.651 152.527 311.173 152.768C310.673 153.02 310.422 153.146 310.217 153.211C309.738 153.362 309.438 153.456 309.084 153.377Z" fill="#F2F2F2"/>
<path d="M0 178.736C0 178.951 0.301145 179.123 0.676153 179.123H323.461C323.836 179.123 324.137 178.951 324.137 178.736C324.137 178.521 323.836 178.349 323.461 178.349H0.676153C0.301145 178.349 0 178.521 0 178.736Z" fill="#CCCCCC"/>
<path d="M164.014 176.29L168.533 176.29L170.683 158.86L164.013 158.86L164.014 176.29Z" fill="#FFB6B6"/>
<path d="M179.496 176.188C179.637 176.425 179.711 177.19 179.711 177.465C179.711 178.312 179.025 178.999 178.178 178.999L164.183 178.999C163.605 178.999 163.137 178.531 163.137 177.953V177.37C163.137 177.37 162.444 175.619 163.87 173.461C163.87 173.461 165.641 175.151 168.288 172.504L169.069 171.089L174.719 175.222L177.851 175.607C178.536 175.692 179.144 175.594 179.496 176.188Z" fill="#2F2E41"/>
<path d="M143.711 176.29L148.23 176.29L150.379 158.86L143.71 158.86L143.711 176.29Z" fill="#FFB6B6"/>
<path d="M159.193 176.188C159.334 176.425 159.408 177.19 159.408 177.465C159.408 178.312 158.721 178.999 157.874 178.999L143.88 178.999C143.302 178.999 142.833 178.531 142.833 177.953V177.37C142.833 177.37 142.141 175.619 143.566 173.461C143.566 173.461 145.338 175.151 147.985 172.504L148.766 171.089L154.416 175.222L157.548 175.607C158.233 175.692 158.841 175.594 159.193 176.188Z" fill="#2F2E41"/>
<path d="M163.298 57.2715L164.156 65.2784L154.148 64.4205L155.863 56.9855L163.298 57.2715Z" fill="#FFB6B6"/>
<path opacity="0.1" d="M163.298 57.2715L164.156 65.2784L154.148 64.4205L155.863 56.9855L163.298 57.2715Z" fill="black"/>
<path d="M159.724 58.2723C163.356 58.2723 166.301 55.3277 166.301 51.6952C166.301 48.0628 163.356 45.1181 159.724 45.1181C156.091 45.1181 153.147 48.0628 153.147 51.6952C153.147 55.3277 156.091 58.2723 159.724 58.2723Z" fill="#FFB6B6"/>
<path d="M164.013 61.9898L175.023 68.424L171.416 85.8676L173.879 109.316L172.163 166.795L161.583 165.651L160.153 116.751L151.86 167.366H141.586L143.281 112.748L148.428 89.5851L145.283 64.4205L154.862 61.4179L164.013 61.9898Z" fill="#2F2E41"/>
<path d="M164.442 53.554C164.442 53.554 165.014 51.5522 166.301 51.6952C167.588 51.8382 167.874 50.6944 167.588 50.1224C167.302 49.5505 166.73 46.6909 166.73 46.6909C166.73 46.6909 167.016 44.6892 165.3 44.4032C163.584 44.1173 163.012 43.8313 162.726 43.2594C162.44 42.6875 158.151 42.1155 156.721 42.9734C155.291 43.8313 154.148 45.4773 153.147 45.9411C152.146 46.405 151.288 47.2628 151.86 48.6926C152.432 50.1224 153.261 52.9188 153.261 52.9188C153.261 52.9188 154.719 52.4101 155.005 53.268C155.291 54.1259 154.148 52.9821 155.577 50.6944C157.007 48.4067 157.007 46.119 159.295 46.9769C161.583 47.8348 164.156 47.5488 163.87 49.2646C163.584 50.9803 164.442 53.554 164.442 53.554Z" fill="#2F2E41"/>
<path d="M169.345 104.187C167.969 105.644 167.605 107.536 168.533 108.411C169.46 109.287 171.328 108.816 172.705 107.357C173.263 106.783 173.675 106.082 173.907 105.316L179.661 99.0668L176.671 96.4291L171.316 102.869C170.563 103.145 169.888 103.596 169.345 104.187Z" fill="#FFB6B6"/>
<path d="M174.907 68.281L184.597 84.7895L186.032 92.326L176.701 104.169L172.754 99.1448L177.419 92.326L169.883 79.0474L174.907 68.281Z" fill="#2F2E41"/>
<path d="M147.663 102.649V83.185C147.663 80.2183 150.076 77.8049 153.043 77.8049H182.797C185.763 77.8049 188.177 80.2183 188.177 83.185V102.649C188.177 105.616 185.763 108.03 182.797 108.03H153.043C150.076 108.03 147.663 105.616 147.663 102.649Z" fill="#0185CD"/>
<path d="M162.132 90.0901H172.422V87.5178H162.132V90.0901Z" fill="#3F3D56"/>
<path d="M171.578 107.857V102.713H163.218V107.857H171.578Z" fill="#3F3D56"/>
<path d="M171.971 83.1219V77.9773H163.611V83.1219H171.971Z" fill="#3F3D56"/>
<path d="M150.674 100.469C152.051 101.927 152.414 103.818 151.487 104.694C150.559 105.57 148.692 105.098 147.315 103.64C146.757 103.065 146.345 102.365 146.113 101.598L140.359 95.3493L143.349 92.7116L148.704 99.1518C149.456 99.4273 150.132 99.879 150.674 100.469Z" fill="#FFB6B6"/>
<path d="M145.113 64.5635L135.423 81.072L133.987 88.6085L143.318 100.452L147.266 95.4273L142.6 88.6085L150.137 75.3299L145.113 64.5635Z" fill="#2F2E41"/>
<path d="M24.6264 143.281C29.4796 143.281 33.4139 139.857 33.4139 135.633C33.4139 131.409 29.4796 127.984 24.6264 127.984C19.7732 127.984 15.8389 131.409 15.8389 135.633C15.8389 139.857 19.7732 143.281 24.6264 143.281Z" fill="#E6E6E6"/>
</svg>
