<svg width="327" height="222" viewBox="0 0 327 222" fill="none" xmlns="http://www.w3.org/2000/svg">
<g clip-path="url(#clip0_473_3243)">
<path d="M161.231 221.062H148.67V130.011H158.885C159.38 130.011 159.855 130.196 160.206 130.524C160.556 130.853 160.755 131.299 160.757 131.765L161.231 221.062Z" fill="#CCCCCC"/>
<path d="M149.844 221.544H14.9492V156.7H149.844V221.544Z" fill="white"/>
<path d="M96.6749 221.303H15.2052V156.941H149.588V171.47C149.572 184.682 143.992 197.348 134.072 206.691C124.153 216.033 110.703 221.288 96.6749 221.303Z" fill="#F2F2F2"/>
<path d="M159.185 132.597C159.117 132.718 159.065 132.846 159.028 132.978L154.377 149.864L149.331 158.863H15.4612V156.622L23.0829 149.864L31.974 133.847C32.3665 133.14 32.8819 132.5 33.4989 131.953C34.9066 130.706 36.7668 130.011 38.6998 130.011H157.53C157.853 130.011 158.17 130.09 158.451 130.239C158.732 130.389 158.967 130.604 159.133 130.864C159.3 131.124 159.392 131.421 159.401 131.724C159.41 132.028 159.336 132.329 159.185 132.597Z" fill="#F2F2F2"/>
<path d="M149.844 221.544H14.9492V156.7H149.844V221.544ZM15.9732 220.58H148.82V157.665H15.9732V220.58Z" fill="#E6E6E6"/>
<path d="M156.862 141.236L154.377 149.864H23.0831L27.3255 142.682L156.862 141.236Z" fill="#CCCCCC"/>
<path d="M41.4271 190.679H19.9236V191.8H41.4271V190.679Z" fill="white"/>
<path d="M41.4271 194.602H19.9236V195.722H41.4271V194.602Z" fill="white"/>
<path d="M41.4271 198.524H19.9236V199.645H41.4271V198.524Z" fill="white"/>
<path d="M28.2533 178.195C32.525 178.195 35.988 174.934 35.988 170.911C35.988 166.888 32.525 163.626 28.2533 163.626C23.9815 163.626 20.5186 166.888 20.5186 170.911C20.5186 174.934 23.9815 178.195 28.2533 178.195Z" fill="white"/>
<path d="M113.027 144.971H106.458V97.3552H111.801C112.059 97.3552 112.308 97.4517 112.491 97.6236C112.675 97.7955 112.778 98.0288 112.78 98.2725L113.027 144.971Z" fill="#CCCCCC"/>
<path d="M107.072 145.223H36.5288V111.312H107.072V145.223Z" fill="white"/>
<path d="M79.2676 145.097H36.6627V111.438H106.938V119.036C106.93 125.945 104.012 132.569 98.8246 137.455C93.6371 142.341 86.6038 145.089 79.2676 145.097Z" fill="#F2F2F2"/>
<path d="M111.957 98.7077C111.922 98.7709 111.895 98.8377 111.875 98.9069L109.443 107.737L106.804 112.444H36.7966V111.271L40.7823 107.737L45.432 99.3614C45.6372 98.9916 45.9068 98.6568 46.2294 98.3709C46.9656 97.7185 47.9384 97.3552 48.9493 97.3552H111.092C111.261 97.3552 111.427 97.3963 111.573 97.4744C111.72 97.5526 111.843 97.6652 111.93 97.8012C112.017 97.9373 112.066 98.0923 112.07 98.2511C112.075 98.41 112.036 98.5672 111.957 98.7077Z" fill="#F2F2F2"/>
<path d="M107.072 145.223H36.5288V111.312H107.072V145.223ZM37.0643 144.718H106.537V111.817H37.0643V144.718Z" fill="#E6E6E6"/>
<path d="M110.742 103.225L109.443 107.737H40.7825L43.001 103.981L110.742 103.225Z" fill="#CCCCCC"/>
<path d="M50.3755 129.082H39.1302V129.668H50.3755V129.082Z" fill="white"/>
<path d="M50.3755 131.133H39.1302V131.719H50.3755V131.133Z" fill="white"/>
<path d="M50.3755 133.184H39.1302V133.77H50.3755V133.184Z" fill="white"/>
<path d="M43.4862 122.553C45.7201 122.553 47.5311 120.848 47.5311 118.744C47.5311 116.64 45.7201 114.934 43.4862 114.934C41.2522 114.934 39.4413 116.64 39.4413 118.744C39.4413 120.848 41.2522 122.553 43.4862 122.553Z" fill="white"/>
<path d="M306.626 221.511L306.585 221.305C305.921 217.854 306.062 214.307 307 210.912C307.937 207.517 309.649 204.355 312.015 201.646C313.355 200.136 314.892 198.792 316.589 197.643L316.75 197.534L316.821 197.709C317.665 199.805 318.73 201.904 319.216 202.833L319.544 195.898L319.73 195.804C320.587 195.372 321.561 195.191 322.528 195.285C323.494 195.379 324.409 195.743 325.154 196.331C325.924 196.914 326.491 197.701 326.783 198.591C327.074 199.48 327.076 200.431 326.788 201.322C326.533 202.137 326.293 202.982 326.06 203.799C325.261 206.608 324.435 209.512 322.834 211.958C321.602 213.798 319.95 215.356 317.998 216.518C316.045 217.679 313.842 218.416 311.549 218.673L306.626 221.511Z" fill="#F2F2F2"/>
<path d="M327 221.426C327 221.502 326.985 221.576 326.954 221.646C326.924 221.716 326.879 221.779 326.822 221.832C326.765 221.886 326.698 221.928 326.624 221.957C326.55 221.986 326.471 222 326.391 222H0.609283C0.447691 222 0.292716 221.94 0.178454 221.832C0.0641911 221.724 0 221.578 0 221.426C0 221.274 0.0641911 221.128 0.178454 221.02C0.292716 220.913 0.447691 220.852 0.609283 220.852H326.391C326.471 220.852 326.55 220.867 326.624 220.896C326.698 220.924 326.765 220.967 326.822 221.02C326.879 221.073 326.924 221.137 326.954 221.206C326.985 221.276 327 221.351 327 221.426Z" fill="#CCCCCC"/>
<path d="M253.105 74.6081L243.78 73.3502C240.627 78.3168 239.506 91.5363 239.506 91.5363L230.38 111.965C229.775 112.351 229.29 112.881 228.972 113.5C228.654 114.12 228.515 114.807 228.569 115.494C228.623 116.18 228.868 116.841 229.279 117.409C229.69 117.978 230.253 118.435 230.911 118.733C231.57 119.032 232.3 119.162 233.028 119.111C233.757 119.059 234.458 118.828 235.062 118.44C235.665 118.052 236.149 117.521 236.466 116.901C236.782 116.28 236.919 115.593 236.863 114.906L251.847 91.1288L253.105 74.6081Z" fill="#FFB8B8"/>
<path d="M251.621 50.2267C253.064 50.4372 254.441 50.9447 255.652 51.7131C256.863 52.4815 257.88 53.4919 258.63 54.6725C259.379 55.853 259.844 57.1746 259.989 58.5433C260.135 59.9119 259.959 61.294 259.473 62.5912L257.494 67.8736C257.494 67.8736 256.417 83.7789 252.308 88.2686L239.703 87.1939C239.703 87.1939 242.007 79.1694 240.238 75.2869C239.154 72.9092 239.215 64.6968 240.282 58.0162C240.482 56.803 240.935 55.6389 241.613 54.5905C242.292 53.5421 243.183 52.63 244.236 51.9065C245.289 51.183 246.484 50.6622 247.751 50.3739C249.018 50.0857 250.333 50.0357 251.621 50.2267Z" fill="#E6E6E6"/>
<path d="M282.438 215.263L276.821 215.263L274.149 194.857L282.44 194.858L282.438 215.263Z" fill="#FFB6B6"/>
<path d="M282.636 220.782L265.363 220.781V220.575C265.363 218.896 266.071 217.286 267.332 216.098C268.593 214.911 270.303 214.244 272.086 214.244L275.242 211.989L281.129 214.244L282.636 214.244L282.636 220.782Z" fill="#2F2E41"/>
<path d="M258.018 189.974L252.829 192L242.06 174.115L249.719 171.125L258.018 189.974Z" fill="#FFB6B6"/>
<path d="M260.445 195L244.489 201.232L244.406 201.042C243.723 199.49 243.722 197.747 244.404 196.195C245.085 194.644 246.393 193.41 248.04 192.767L250.038 189.546L256.393 189.505L257.786 188.961L260.445 195Z" fill="#2F2E41"/>
<path d="M288.861 99.1862L248.997 103.109L243.665 120.023L225.198 147.973L245.588 183.254L252.769 177.184L245.876 148.694L266.449 127.777L270.35 126.252L273.446 203.871L284.9 204.048L289.912 118.401C292.32 110.835 291.595 104.587 288.861 99.1862Z" fill="#2F2E41"/>
<path d="M274.246 45.6392L267.702 38.7005L257.364 39.7824L250.744 48.5068C247.221 49.2696 244.142 51.2752 242.141 54.111C240.14 56.9467 239.369 60.3969 239.987 63.7517C242.555 77.6818 251.285 91.1924 248.402 98.0656C244.027 108.499 243.76 112.754 254.234 111.291C264.707 109.829 299.796 106.456 292.993 100.049C286.19 93.6425 284.696 82.9362 284.696 82.9362L284.423 58.4419C284.712 56.9646 284.674 55.4469 284.31 53.9842C283.946 52.5216 283.265 51.1458 282.309 49.9432C281.353 48.7407 280.143 47.7375 278.755 46.9968C277.368 46.256 275.832 45.7938 274.246 45.6392Z" fill="#E6E6E6"/>
<path d="M261.459 36.9249C267.798 36.9249 272.936 32.0857 272.936 26.1162C272.936 20.1467 267.798 15.3074 261.459 15.3074C255.121 15.3074 249.982 20.1467 249.982 26.1162C249.982 32.0857 255.121 36.9249 261.459 36.9249Z" fill="#FFB8B8"/>
<path d="M275.6 25.4743C275.088 27.6643 274.163 29.7502 272.871 31.6335C272.527 32.2757 272.015 32.8239 271.382 33.2256C271.061 33.4193 270.679 33.501 270.301 33.4565C269.923 33.4121 269.574 33.2442 269.314 32.9822L269.035 32.7679C269.582 32.4502 270.071 32.0506 270.482 31.5848C270.686 31.3511 270.827 31.0749 270.894 30.7794C270.962 30.4839 270.954 30.1774 270.87 29.8856C270.771 29.5977 270.557 29.3573 270.274 29.2147C269.99 29.0722 269.659 29.0386 269.35 29.1211C268.678 29.3695 268.269 30.2848 267.566 30.1436C266.998 30.0268 266.879 29.3208 266.879 28.7657C266.899 25.8638 265.411 21.7399 264.258 21.8665C263.093 21.9264 261.927 21.7794 260.82 21.4331C259.711 21.0862 258.542 20.9457 257.377 21.0193C257.294 21.029 257.211 21.0436 257.123 21.0582C256.937 20.5069 256.68 19.9788 256.358 19.4856C256.394 20.081 256.363 20.6784 256.265 21.2676C255.338 21.6275 254.38 21.9126 253.401 22.1196C252.336 22.2608 249.994 25.2601 249.886 24.9533C249.699 24.402 249.442 23.8739 249.12 23.3807C249.157 23.9761 249.126 24.5735 249.027 25.1627C249.022 25.187 249.022 25.2065 249.017 25.2309C248.5 24.5833 248.185 23.7945 248.36 24.3983C246.629 20.7077 247.301 18.0638 250.025 14.9526C250.556 14.2836 251.259 13.7526 252.067 13.4091C252.472 13.2417 252.916 13.1752 253.356 13.2161C253.796 13.257 254.218 13.404 254.58 13.6429C255.691 12.6834 257.054 12.0212 258.529 11.725C260.003 11.4288 261.535 11.5093 262.965 11.9582C265.803 12.8882 267.99 13.4335 268.425 16.238C270.772 15.8826 273.186 17.1388 274.478 19.0133C275.766 20.8927 276.029 23.2784 275.6 25.4743Z" fill="#2F2E41"/>
<path d="M266.294 115.251H262.484V87.6404H265.582C265.732 87.6404 265.876 87.6963 265.983 87.796C266.089 87.8957 266.149 88.0309 266.15 88.1722L266.294 115.251Z" fill="#3F3D56"/>
<path d="M262.84 115.397H221.935V95.7336H262.84V115.397Z" fill="white"/>
<path d="M246.717 115.324H222.012V95.8067H262.763V100.212C262.758 104.219 261.066 108.06 258.058 110.893C255.05 113.726 250.972 115.319 246.717 115.324Z" fill="#0185CD"/>
<path d="M265.673 88.4247C265.653 88.4613 265.637 88.5 265.626 88.5401L264.215 93.6606L262.685 96.3896H222.09V95.7099L224.401 93.6606L227.097 88.8037C227.216 88.5893 227.373 88.3952 227.56 88.2294C227.987 87.851 228.551 87.6404 229.137 87.6404H265.171C265.269 87.6404 265.365 87.6642 265.45 87.7095C265.536 87.7548 265.607 87.8201 265.657 87.899C265.708 87.9779 265.736 88.0678 265.739 88.1599C265.741 88.252 265.719 88.3432 265.673 88.4247Z" fill="#3F3D56"/>
<path d="M262.84 115.397H221.935V95.7336H262.84V115.397ZM222.245 115.105H262.53V96.0261H222.245V115.105Z" fill="#3F3D56"/>
<path d="M264.968 91.0438L264.215 93.6607H224.402L225.688 91.4826L264.968 91.0438Z" fill="#0185CD"/>
<path d="M229.964 106.037H223.443V106.377H229.964V106.037Z" fill="white"/>
<path d="M229.964 107.227H223.443V107.567H229.964V107.227Z" fill="white"/>
<path d="M229.964 108.416H223.443V108.756H229.964V108.416Z" fill="white"/>
<path d="M225.969 102.252C227.265 102.252 228.315 101.263 228.315 100.043C228.315 98.8229 227.265 97.8339 225.969 97.8339C224.674 97.8339 223.624 98.8229 223.624 100.043C223.624 101.263 224.674 102.252 225.969 102.252Z" fill="white"/>
<path d="M282.207 72.0837L272.882 70.8258C269.729 75.7924 268.608 89.0119 268.608 89.0119L259.482 109.44C258.877 109.827 258.392 110.356 258.074 110.976C257.756 111.596 257.617 112.283 257.671 112.969C257.725 113.655 257.97 114.316 258.381 114.885C258.792 115.454 259.355 115.91 260.014 116.209C260.672 116.508 261.402 116.638 262.13 116.586C262.859 116.535 263.56 116.303 264.164 115.915C264.767 115.527 265.251 114.996 265.568 114.376C265.884 113.756 266.021 113.068 265.965 112.382L280.949 88.6044L282.207 72.0837Z" fill="#FFB8B8"/>
<path d="M277.153 47.7023C278.597 47.9128 279.973 48.4203 281.184 49.1887C282.396 49.9571 283.412 50.9675 284.162 52.148C284.912 53.3286 285.376 54.6502 285.521 56.0188C285.667 57.3875 285.491 58.7696 285.005 60.0667L283.026 65.3491C283.026 65.3491 285.519 81.2544 281.411 85.7441L268.805 84.6694C268.805 84.6694 271.11 76.645 269.34 72.7624C268.257 70.3847 268.317 62.1724 269.384 55.4917C270.2 50.3905 271.74 46.9128 277.153 47.7023Z" fill="#E6E6E6"/>
<path d="M197.971 21.3856C193.415 23.5255 189.948 27.2823 188.334 31.8295C186.719 36.3767 187.088 41.3419 189.36 45.6327C194.092 54.5678 211.19 69.8067 224.832 72.1092C218.964 55.3286 227.123 38.2719 223.717 29.4954C220.077 20.1175 207.459 16.9294 197.971 21.3856Z" fill="#0185CD"/>
<path d="M204.366 42.6363C207.824 42.6363 210.627 39.9965 210.627 36.7401C210.627 33.4838 207.824 30.844 204.366 30.844C200.909 30.844 198.106 33.4838 198.106 36.7401C198.106 39.9965 200.909 42.6363 204.366 42.6363Z" fill="white"/>
<path d="M224.711 81.5728C226.976 81.5728 228.812 79.8438 228.812 77.711C228.812 75.5782 226.976 73.8492 224.711 73.8492C222.447 73.8492 220.611 75.5782 220.611 77.711C220.611 79.8438 222.447 81.5728 224.711 81.5728Z" fill="#0185CD"/>
<path opacity="0.2" d="M206.274 30.5422C207.096 30.5153 207.916 30.6412 208.686 30.9128C209.457 31.1844 210.163 31.5963 210.764 32.125C211.365 32.6537 211.85 33.2888 212.19 33.994C212.531 34.6992 212.721 35.4607 212.748 36.2349C212.776 37.0092 212.642 37.781 212.353 38.5063C212.064 39.2316 211.626 39.8961 211.064 40.462C210.502 41.0278 209.827 41.4837 209.078 41.8038C208.329 42.1239 207.521 42.3018 206.698 42.3274C208.092 41.8394 209.255 40.9003 209.98 39.6782C210.706 38.4562 210.945 37.0309 210.657 35.6575C210.368 34.2842 209.57 33.0523 208.405 32.1825C207.24 31.3127 205.785 30.8617 204.299 30.9102C204.932 30.688 205.599 30.5637 206.274 30.5422Z" fill="#231F20"/>
<path opacity="0.2" d="M223.748 29.4988C227.154 38.2753 218.995 55.332 224.863 72.1126C223.576 71.8893 222.307 71.5766 221.069 71.1771C216.288 54.9555 223.792 38.7463 220.501 30.2666C217.555 22.6772 208.729 19.1426 200.441 20.4321C209.538 17.5103 220.413 20.9049 223.748 29.4988Z" fill="#231F20"/>
<path d="M31.5702 110.926C26.8541 110.819 22.2861 112.481 18.8712 115.547C15.4564 118.612 13.4743 122.829 13.361 127.271C13.1252 136.52 20.1177 155.979 30.2315 163.432C33.1462 147.294 47.6769 136.653 48.9254 128.075C50.2594 118.909 41.391 111.148 31.5702 110.926Z" fill="#D1D3D4"/>
<path d="M29.7432 131.575C32.947 131.575 35.5442 129.129 35.5442 126.112C35.5442 123.094 32.947 120.648 29.7432 120.648C26.5393 120.648 23.9421 123.094 23.9421 126.112C23.9421 129.129 26.5393 131.575 29.7432 131.575Z" fill="white"/>
<path d="M27.5555 171.55C29.6539 171.55 31.355 169.948 31.355 167.971C31.355 165.995 29.6539 164.393 27.5555 164.393C25.457 164.393 23.7559 165.995 23.7559 167.971C23.7559 169.948 25.457 171.55 27.5555 171.55Z" fill="#D1D3D4"/>
<path opacity="0.2" d="M34.1576 121.814C35.5411 122.448 36.6006 123.573 37.103 124.943C37.6054 126.312 37.5095 127.814 36.8365 129.117C36.5032 129.762 36.0383 130.339 35.4683 130.815C34.8983 131.291 34.2343 131.656 33.5143 131.891C32.0601 132.364 30.4659 132.273 29.0825 131.64C30.4482 131.808 31.8331 131.514 32.9894 130.809C34.1457 130.104 34.9979 129.035 35.3935 127.792C35.789 126.55 35.7021 125.215 35.1483 124.027C34.5945 122.839 33.6099 121.876 32.3707 121.309C32.9914 121.386 33.5948 121.556 34.1576 121.814Z" fill="#231F20"/>
<path opacity="0.2" d="M48.9496 128.091C47.7011 136.669 33.1705 147.309 30.2557 163.448C29.3039 162.74 28.4089 161.966 27.5782 161.133C31.1261 145.896 44.7301 135.682 45.9364 127.394C47.0161 119.976 41.4133 113.479 34.0317 111.153C42.8264 112.472 50.1722 119.691 48.9496 128.091Z" fill="#231F20"/>
<path d="M99.0527 39.7405C97.7272 39.8222 96.4879 40.3877 95.5984 41.3168C94.709 42.2459 94.2396 43.4652 94.2901 44.7153C94.3046 44.9693 94.3414 45.2217 94.4002 45.4699L79.3485 54.4004L87.6699 57.8665L100.687 48.8546C101.761 48.5455 102.697 47.9103 103.347 47.048C103.997 46.1858 104.327 45.145 104.283 44.0881C104.252 43.4869 104.095 42.8974 103.822 42.3532C103.55 41.809 103.166 41.3207 102.692 40.9162C102.219 40.5118 101.666 40.1991 101.064 39.996C100.463 39.7929 99.8244 39.7034 99.1861 39.7326C99.1416 39.7347 99.0971 39.7373 99.0527 39.7405Z" fill="#FFB6B6"/>
<path d="M84.5382 50.3414L88.2686 57.5902L73.5191 66.5292C72.4696 67.1707 71.2633 67.5488 70.015 67.6275C68.7666 67.7063 67.5176 67.4831 66.3867 66.9792C65.0117 66.3593 63.8878 65.3354 63.1846 64.0616C62.4813 62.7878 62.2367 61.3333 62.4876 59.9172L67.2736 34.1846C67.5949 32.3838 68.6367 30.7675 70.1846 29.668C71.7326 28.5685 73.6691 28.0694 75.5958 28.2735C76.5342 28.3701 77.4433 28.6399 78.271 29.0674C79.0988 29.4949 79.829 30.0718 80.42 30.7651C81.0111 31.4584 81.4513 32.2545 81.7156 33.1081C81.98 33.9616 82.0632 34.8558 81.9606 35.7397C81.9525 35.8095 81.9432 35.8792 81.9328 35.9488C81.8966 36.196 81.8463 36.4413 81.7821 36.6834L76.5573 54.984L84.5382 50.3414Z" fill="#0185CD"/>
<path d="M85.5865 61.5788H64.493V81.4446H85.5865V61.5788Z" fill="#FFB8B8"/>
<path d="M135.61 120.085L143.666 117.533L148.152 138.184L142.693 139.913L135.61 120.085Z" fill="#FFB6B6"/>
<path d="M121.956 118.498L129.947 115.77L134.942 136.317L129.528 138.165L121.956 118.498Z" fill="#FFB6B6"/>
<path d="M65.2496 86.6345C61.0218 113.179 117.322 97.4855 117.322 97.4855L134.975 120.42L145.31 118.65C145.31 118.65 140.659 104.882 132.355 86.4252C128.667 78.2286 86.7884 80.2314 86.7884 80.2314L85.9188 73.8045L61.9613 73.3621L65.2496 86.6345Z" fill="#2F2E41"/>
<path d="M105.918 99.265L118.937 91.6287C128.468 109.553 131.277 117.315 131.277 117.315L122.267 119.701L105.918 99.265Z" fill="#2F2E41"/>
<path d="M77.2998 29.2968L73.0541 24.157L66.9977 23.9097L66.3932 28.7437L63.3923 30.047C60.3959 40.7682 59.9331 51.9779 62.0366 62.8858C62.4388 63.2425 62.7327 63.6937 62.8879 64.193C63.0431 64.6923 63.0541 65.2215 62.9197 65.7261L62.7252 66.4566L62.7432 66.4833C63.3817 67.4323 63.5984 68.5797 63.3464 69.6778L61.9133 72.076C61.399 72.9385 61.0903 73.8961 61.0088 74.8823C60.9272 75.8685 61.0748 76.8596 61.4411 77.7866C61.8075 78.7137 62.3838 79.5545 63.1301 80.2505C63.8764 80.9465 64.7747 81.4811 65.7626 81.8171C74.5718 84.8243 82.8298 85.9444 88.9389 77.5057L90.8599 48.0984L77.2998 29.2968Z" fill="#0185CD"/>
<path d="M72.852 25.5219C79.0365 25.5219 84.0499 20.8003 84.0499 14.9758C84.0499 9.15131 79.0365 4.42964 72.852 4.42964C66.6676 4.42964 61.6541 9.15131 61.6541 14.9758C61.6541 20.8003 66.6676 25.5219 72.852 25.5219Z" fill="#FFB8B8"/>
<path d="M67.2305 2.26256C62.4892 2.34834 58.7286 6.49032 58.8311 11.5139C55.3225 14.9619 54.4725 31.9214 57.4042 36.4331C62.7672 37.0194 66.0293 24.5233 70.7326 26.3298L71.3523 23.6027L72.7567 27.154C73.952 27.673 75.1382 28.2426 76.3154 28.8629C77.1614 25.2084 76.9517 21.6561 74.6779 18.5619C72.6578 15.8131 77.5737 12.5497 81.0893 13.011L81.0378 10.4863L81.9209 12.9959C83.2913 13.9443 84.8072 13.601 86.3617 12.9156C88.8825 0.57692 69.366 -2.7973 67.2305 2.26256Z" fill="#2F2E41"/>
<path d="M140.212 143.407L143.801 142.965L143.999 139.695L146.082 142.684L155.602 141.513C156.058 141.457 156.483 141.265 156.815 140.965C157.148 140.665 157.369 140.273 157.448 139.846C157.527 139.419 157.459 138.98 157.254 138.592C157.049 138.204 156.717 137.888 156.308 137.69L148.02 133.681L147.573 130.454L139.639 131.887L140.212 143.407Z" fill="#2F2E41"/>
<path d="M130.732 143.436L133.988 141.947L133.076 138.786L136.058 141L144.694 137.051C145.108 136.862 145.446 136.553 145.661 136.169C145.875 135.786 145.954 135.348 145.885 134.919C145.816 134.491 145.604 134.094 145.279 133.787C144.954 133.481 144.533 133.28 144.078 133.214L134.869 131.882L133.36 128.955L126.317 132.68L130.732 143.436Z" fill="#2F2E41"/>
<path d="M81.5786 73.1094H85.5712V44.1689H82.3241C82.1668 44.1689 82.0159 44.2276 81.9044 44.3321C81.7929 44.4365 81.7299 44.5783 81.7291 44.7265L81.5786 73.1094Z" fill="#CCCCCC"/>
<path d="M85.1981 52.6521H128.074V73.2626H85.1981V52.6521Z" fill="white"/>
<path d="M85.2794 57.3466V52.7287H127.993V73.186H102.098C97.6388 73.1813 93.3639 71.511 90.2109 68.5415C87.058 65.5721 85.2845 61.546 85.2794 57.3466Z" fill="#F2F2F2"/>
<path d="M82.2289 44.991C82.2504 45.0294 82.2671 45.07 82.2787 45.112L83.7572 50.4792L85.3609 53.3396H127.911V52.6272L125.489 50.4792L122.663 45.3883C122.538 45.1636 122.374 44.9601 122.178 44.7863C121.731 44.3898 121.14 44.169 120.525 44.169H82.7549C82.6524 44.169 82.5516 44.1939 82.4623 44.2414C82.373 44.2889 82.2983 44.3574 82.2454 44.4401C82.1924 44.5228 82.1631 44.617 82.1602 44.7135C82.1573 44.81 82.181 44.9056 82.2289 44.991Z" fill="#F2F2F2"/>
<path d="M85.1981 52.6521H128.074V73.2626H85.1981V52.6521ZM127.749 72.9561H85.5235V52.9586H127.749L127.749 72.9561Z" fill="#E6E6E6"/>
<path d="M82.9673 47.7364L83.7573 50.4792H125.489L124.14 48.1965L82.9673 47.7364Z" fill="#CCCCCC"/>
<path d="M126.493 63.4523H119.658V63.8085H126.493V63.4523Z" fill="white"/>
<path d="M126.493 64.699H119.658V65.0552H126.493V64.699Z" fill="white"/>
<path d="M126.493 65.9458H119.658V66.302H126.493V65.9458Z" fill="white"/>
<path d="M123.846 59.4843C125.203 59.4843 126.304 58.4476 126.304 57.1689C126.304 55.8901 125.203 54.8535 123.846 54.8535C122.488 54.8535 121.387 55.8901 121.387 57.1689C121.387 58.4476 122.488 59.4843 123.846 59.4843Z" fill="white"/>
<path d="M104.013 22.1838C106.903 22.1184 109.702 23.1369 111.794 25.0151C113.887 26.8934 115.101 29.4775 115.171 32.1991C115.315 37.8665 111.031 49.79 104.833 54.3569C103.047 44.4679 94.1438 37.9482 93.3788 32.6919C92.5614 27.0754 97.9954 22.3199 104.013 22.1838Z" fill="#D1D3D4"/>
<path d="M105.133 34.8365C107.096 34.8365 108.687 33.3377 108.687 31.4888C108.687 29.64 107.096 28.1412 105.133 28.1412C103.169 28.1412 101.578 29.64 101.578 31.4888C101.578 33.3377 103.169 34.8365 105.133 34.8365Z" fill="white"/>
<path d="M106.473 59.3308C107.759 59.3308 108.801 58.3491 108.801 57.1381C108.801 55.9272 107.759 54.9455 106.473 54.9455C105.187 54.9455 104.145 55.9272 104.145 57.1381C104.145 58.3491 105.187 59.3308 106.473 59.3308Z" fill="#D1D3D4"/>
<path opacity="0.2" d="M102.428 28.8554C102.008 29.0477 101.633 29.316 101.323 29.645C101.013 29.9739 100.775 30.3571 100.623 30.7726C100.471 31.1881 100.406 31.6278 100.435 32.0667C100.463 32.5055 100.582 32.9348 100.786 33.3301C100.99 33.7254 101.275 34.079 101.625 34.3707C101.974 34.6623 102.381 34.8863 102.822 35.0298C103.263 35.1734 103.73 35.2337 104.196 35.2073C104.662 35.1809 105.118 35.0683 105.537 34.876C104.701 34.9795 103.852 34.7992 103.144 34.3672C102.435 33.9353 101.913 33.28 101.67 32.5186C101.428 31.7571 101.481 30.9394 101.821 30.2116C102.16 29.4838 102.763 28.8935 103.523 28.5463C103.142 28.593 102.773 28.6974 102.428 28.8554Z" fill="#231F20"/>
<path opacity="0.2" d="M93.3639 32.7015C94.1289 37.9578 103.033 44.4776 104.819 54.3665C105.402 53.9324 105.95 53.4584 106.459 52.9481C104.285 43.6115 95.9494 37.3533 95.2102 32.2747C94.5487 27.7294 97.9818 23.7483 102.505 22.3229C97.1159 23.1313 92.6148 27.5545 93.3639 32.7015Z" fill="#231F20"/>
<path d="M97.681 50.0214C96.3563 49.929 95.0456 50.3271 94.0278 51.1309C93.01 51.9348 92.3655 53.0809 92.2312 54.3255C92.2082 54.5789 92.2074 54.8336 92.229 55.0871L76.0068 61.9634L83.7367 66.4839L97.9565 59.261C99.0657 59.0954 100.086 58.5886 100.857 57.8197C101.628 57.0508 102.107 56.0631 102.22 55.0108C102.337 53.8002 101.938 52.5955 101.112 51.6617C100.286 50.7278 99.0996 50.1413 97.8143 50.0311C97.7699 50.0273 97.7254 50.0241 97.681 50.0214Z" fill="#FFB6B6"/>
<path d="M81.7446 58.6221L84.3703 66.2884L68.446 73.2125C67.3122 73.7106 66.0619 73.9274 64.814 73.8421C63.5661 73.7569 62.3621 73.3726 61.3163 72.7257C60.046 71.9321 59.084 70.7711 58.5753 69.4177C58.0666 68.0644 58.0388 66.5919 58.496 65.2224L67.0285 40.3645C67.6121 38.6232 68.882 37.1588 70.5771 36.2723C72.2721 35.3858 74.2634 35.1448 76.1414 35.5987C77.0565 35.8171 77.917 36.2031 78.6737 36.7347C79.4304 37.2663 80.0686 37.9331 80.5517 38.6969C81.0348 39.4608 81.3534 40.3068 81.4894 41.1866C81.6253 42.0664 81.576 42.9629 81.3441 43.8247C81.3257 43.8928 81.3063 43.9607 81.2857 44.0282C81.2135 44.2683 81.1275 44.5046 81.0282 44.736L73.1566 62.1764L81.7446 58.6221Z" fill="#0185CD"/>
</g>
<defs>
<clipPath id="clip0_473_3243">
<rect width="327" height="222" fill="white"/>
</clipPath>
</defs>
</svg>
