<svg width="287" height="222" viewBox="0 0 287 222" fill="none" xmlns="http://www.w3.org/2000/svg">
<g clip-path="url(#clip0_473_3329)">
<path d="M184.315 200.454L183.611 191.859C178.998 189.835 173.892 188.83 168.736 188.931C175.989 193.852 175.408 203.686 180.432 210.417C182.017 212.505 184.117 214.254 186.577 215.533C189.037 216.813 191.794 217.59 194.642 217.808L200.679 220.855C201.37 216.85 201.062 212.761 199.779 208.869C198.495 204.978 196.266 201.377 193.244 198.315C191.529 196.612 189.576 195.105 187.433 193.83C186.113 197.154 184.315 200.454 184.315 200.454Z" fill="#F2F2F2"/>
<path d="M148.357 222H286.557C286.675 222 286.787 221.959 286.87 221.886C286.953 221.813 287 221.715 287 221.611C287 221.508 286.953 221.41 286.87 221.337C286.787 221.264 286.675 221.223 286.557 221.223H148.357C148.24 221.223 148.127 221.264 148.044 221.337C147.961 221.41 147.914 221.508 147.914 221.611C147.914 221.715 147.961 221.813 148.044 221.886C148.127 221.959 148.24 222 148.357 222Z" fill="#CCCCCC"/>
<path d="M60.3664 129.242V129.408H60.4985C60.4506 129.355 60.4065 129.3 60.3664 129.242ZM61.3828 58.7228C52.1578 69.2517 47.1644 82.1647 47.1819 95.4464C47.184 97.469 47.2969 99.463 47.5206 101.428C47.5551 101.766 47.5952 102.104 47.6471 102.436C48.9288 112.211 52.9301 121.558 59.2984 129.655C59.5451 129.973 59.7977 130.285 60.0506 130.598C62.7921 133.971 65.9218 137.087 69.3903 139.898C97.3132 162.527 140.851 161.005 166.635 136.499C167.031 136.131 167.41 135.758 167.783 135.385C178.337 124.896 184.408 111.514 184.958 97.5286C185.508 83.5437 180.502 69.8258 170.798 58.7228C170.505 58.3851 170.207 58.0475 169.897 57.7149C169.217 56.964 168.513 56.2282 167.783 55.5075C167.41 55.1346 167.031 54.7617 166.635 54.3938C160.197 48.2661 152.382 43.3764 143.682 40.0334C134.982 36.6904 125.587 34.9667 116.09 34.9711C115.43 34.9711 114.775 34.9812 114.121 34.9963C113.684 35.0064 113.248 35.0215 112.812 35.0417C103.036 35.4489 93.4726 37.6821 84.7594 41.592C76.0461 45.5019 68.3838 50.9986 62.2842 57.7149C61.9741 58.0475 61.6758 58.3851 61.3828 58.7228ZM60.4985 129.408C60.4506 129.355 60.4065 129.3 60.3664 129.242V129.408H60.4985Z" fill="white"/>
<path d="M59.8842 128.622L60.0793 128.274L74.6994 102.436V102.431L75.2681 101.428V101.423L99.4202 58.7228V58.7178L99.9889 57.7149L99.9945 57.7098L112.226 36.0748L112.812 35.0417C113.248 35.0215 113.685 35.0064 114.121 34.9963L113.541 36.0244L101.275 57.7098V57.7149L100.707 58.7178V58.7228L75.9225 102.537L75.9169 102.542L61.2968 128.4L60.7225 129.408L60.6306 129.575L60.0507 130.598C59.7978 130.285 59.5452 129.973 59.2985 129.655L59.8842 128.622Z" fill="#3F3D56"/>
<path d="M75.6758 101.428V102.436H47.6472C47.5953 102.104 47.5552 101.766 47.5208 101.428H75.6758Z" fill="#3F3D56"/>
<path d="M119.234 109.291V108.283H147.262C147.314 108.615 147.354 108.953 147.389 109.291H119.234Z" fill="#3F3D56"/>
<path d="M142.677 105.779H143.826V130.378C143.447 130.423 143.062 130.458 142.677 130.489V105.779Z" fill="#3F3D56"/>
<path d="M170.798 58.7228C170.505 58.3851 170.207 58.0475 169.897 57.7148H167.783V55.5075C167.41 55.1346 167.031 54.7617 166.635 54.3937V57.7148H62.2843C61.9741 58.0475 61.6758 58.3851 61.3828 58.7228H166.635V136.499C167.031 136.131 167.41 135.758 167.783 135.385V58.7228H170.798Z" fill="#3F3D56"/>
<path d="M167.209 128.4H60.3651V129.408H167.209V128.4Z" fill="#3F3D56"/>
<path d="M60.3664 129.242V129.408H60.4985C60.4506 129.355 60.4065 129.3 60.3664 129.242ZM61.3828 58.7228C52.1578 69.2517 47.1644 82.1647 47.1819 95.4464C47.184 97.469 47.2969 99.463 47.5206 101.428C47.5551 101.766 47.5952 102.104 47.6471 102.436C48.9288 112.211 52.9301 121.558 59.2984 129.655C59.5451 129.973 59.7977 130.285 60.0506 130.598C62.7921 133.971 65.9218 137.087 69.3903 139.898C97.3132 162.527 140.851 161.005 166.635 136.499C167.031 136.131 167.41 135.758 167.783 135.385C178.337 124.896 184.408 111.514 184.958 97.5286C185.508 83.5437 180.502 69.8258 170.798 58.7228C170.505 58.3851 170.207 58.0475 169.897 57.7149C169.217 56.964 168.512 56.2282 167.783 55.5075C167.41 55.1346 167.031 54.7617 166.635 54.3938C160.197 48.2661 152.382 43.3764 143.682 40.0334C134.982 36.6904 125.587 34.9667 116.09 34.9711C115.43 34.9711 114.775 34.9812 114.121 34.9963C113.684 35.0064 113.248 35.0215 112.812 35.0417C103.036 35.4489 93.4726 37.6821 84.7594 41.592C76.0461 45.5019 68.3838 50.9986 62.2842 57.7149C61.9741 58.0475 61.6758 58.3851 61.3828 58.7228ZM48.8012 102.436C48.7496 102.104 48.7095 101.766 48.6691 101.428C46.9187 86.1217 51.9943 70.8151 62.8299 58.7228C63.1341 58.3851 63.4386 58.0475 63.7543 57.7148C69.6891 51.3619 77.061 46.1585 85.4042 42.4337C93.7474 38.7089 102.88 36.5436 112.226 36.0748C112.662 36.0546 113.099 36.0344 113.541 36.0244C114.385 35.9941 115.235 35.979 116.09 35.979C125.64 35.9741 135.082 37.7456 143.794 41.1769C152.506 44.6082 160.291 49.6212 166.635 55.8855C167.031 56.2685 167.416 56.6515 167.783 57.0446C168.007 57.2663 168.219 57.4881 168.426 57.7149C168.742 58.0475 169.046 58.3851 169.351 58.7228C179.006 69.481 184.125 82.8387 183.839 96.5309C183.553 110.223 177.881 123.407 167.783 133.848C167.416 134.241 167.031 134.624 166.635 135.007C163.138 138.455 159.196 141.533 154.888 144.179C124.264 162.989 82.0635 156.451 60.6305 129.575C60.5845 129.519 60.5386 129.464 60.4985 129.408C60.4506 129.355 60.4065 129.3 60.3664 129.242C60.1999 129.035 60.0391 128.829 59.8841 128.622C53.8522 120.799 50.0511 111.818 48.8012 102.436ZM60.4985 129.408C60.4506 129.355 60.4065 129.3 60.3664 129.242V129.408H60.4985Z" fill="#CCCCCC"/>
<path d="M195.453 160.401H126.704C125.864 160.4 125.058 160.107 124.463 159.585C123.869 159.064 123.535 158.356 123.534 157.619V128.22C123.535 127.482 123.869 126.775 124.463 126.254C125.058 125.732 125.864 125.438 126.704 125.438H195.453C196.293 125.438 197.099 125.732 197.694 126.254C198.288 126.775 198.622 127.482 198.623 128.22V157.619C198.622 158.356 198.288 159.064 197.694 159.585C197.099 160.107 196.293 160.4 195.453 160.401Z" fill="#CACACA"/>
<path d="M165.17 158.036C150.114 158.036 134.414 157.909 128.557 157.828C127.786 157.814 127.052 157.536 126.512 157.053C125.971 156.571 125.667 155.922 125.664 155.246V128.222C125.664 127.98 125.774 127.748 125.969 127.576C126.164 127.405 126.428 127.308 126.704 127.307H195.451C195.727 127.307 195.991 127.404 196.187 127.575C196.382 127.746 196.492 127.978 196.493 128.22V146.555C196.48 149.548 195.131 152.417 192.736 154.547C190.34 156.677 187.089 157.899 183.679 157.949C178.219 158.011 171.755 158.036 165.17 158.036Z" fill="#E4E4E4"/>
<path d="M188.355 144.201H132.418C132.055 144.2 131.701 144.102 131.405 143.918C131.108 143.735 130.884 143.476 130.762 143.176L124.43 127.587C124.336 127.355 124.306 127.106 124.345 126.861C124.383 126.616 124.487 126.383 124.649 126.181C124.811 125.979 125.026 125.814 125.276 125.7C125.525 125.586 125.803 125.527 126.084 125.526L196.007 125.441H196.009C196.3 125.441 196.587 125.504 196.843 125.625C197.099 125.746 197.317 125.921 197.477 126.134C197.637 126.347 197.735 126.592 197.761 126.847C197.787 127.101 197.74 127.357 197.625 127.592L189.971 143.266C189.836 143.543 189.611 143.78 189.323 143.946C189.036 144.113 188.699 144.201 188.355 144.201Z" fill="#CACACA"/>
<path d="M148.631 155.005H129.342C128.867 155.004 128.412 154.838 128.076 154.543C127.741 154.248 127.552 153.849 127.552 153.432C127.552 153.015 127.741 152.616 128.076 152.321C128.412 152.026 128.867 151.86 129.342 151.859H148.631C149.106 151.86 149.561 152.026 149.896 152.321C150.232 152.616 150.42 153.015 150.42 153.432C150.42 153.849 150.232 154.248 149.896 154.543C149.561 154.838 149.106 155.004 148.631 155.005Z" fill="#CACACA"/>
<path d="M160.974 148.045C163.393 148.045 165.354 146.324 165.354 144.201C165.354 142.078 163.393 140.357 160.974 140.357C158.555 140.357 156.594 142.078 156.594 144.201C156.594 146.324 158.555 148.045 160.974 148.045Z" fill="#3F3D56"/>
<path d="M22.1424 7.94885C32.9051 1.29696 46.2379 -1.33026 59.2078 0.645153C72.1777 2.62057 83.7223 9.0368 91.3018 18.4824C107.085 38.1517 122.923 89.7297 111.743 119.609C78.3968 88.6969 27.1669 85.4847 10.14 68.6444C-8.0539 50.6498 -0.269826 21.8007 22.1424 7.94885Z" fill="#0185CD"/>
<path d="M51.396 52.4888C60.336 52.4888 67.5833 46.1285 67.5833 38.2826C67.5833 30.4367 60.336 24.0763 51.396 24.0763C42.456 24.0763 35.2087 30.4367 35.2087 38.2826C35.2087 46.1285 42.456 52.4888 51.396 52.4888Z" fill="white"/>
<path d="M125.427 135.081C131.282 135.081 136.029 130.915 136.029 125.776C136.029 120.637 131.282 116.471 125.427 116.471C119.571 116.471 114.825 120.637 114.825 125.776C114.825 130.915 119.571 135.081 125.427 135.081Z" fill="#0185CD"/>
<path opacity="0.2" d="M34.0775 35.0046C33.0057 36.6156 32.3059 38.3962 32.0181 40.2446C31.7304 42.093 31.8603 43.973 32.4004 45.7773C32.9406 47.5816 33.8804 49.2749 35.1662 50.7605C36.452 52.2461 38.0586 53.4948 39.8943 54.4355C41.73 55.3762 43.7588 55.9903 45.865 56.2428C47.9711 56.4954 50.1133 56.3814 52.1692 55.9073C54.2252 55.4333 56.1546 54.6085 57.8473 53.4801C59.54 52.3516 60.9629 50.9416 62.0348 49.3306C59.1454 51.5551 55.4483 52.8046 51.6052 52.8555C47.762 52.9063 44.0237 51.7552 41.0593 49.6081C38.0949 47.461 36.0979 44.4581 35.4257 41.1368C34.7536 37.8156 35.4502 34.3929 37.3908 31.4812C36.077 32.4911 34.9581 33.6809 34.0775 35.0046Z" fill="#231F20"/>
<path opacity="0.2" d="M10.1095 68.7113C27.1364 85.5517 78.3663 88.7639 111.713 119.676C112.753 116.849 113.554 113.958 114.109 111.027C80.7797 82.9254 32.4019 79.3739 15.9507 63.1031C1.22669 48.5404 3.51872 26.8698 16.807 11.7912C-1.41767 26.6174 -6.56347 52.2211 10.1095 68.7113Z" fill="#231F20"/>
<path d="M221.752 128.211L214.878 126.374C211.886 129.54 209.404 138.712 209.404 138.712L199.996 152.13C199.493 152.339 199.061 152.662 198.745 153.065C198.428 153.467 198.238 153.936 198.194 154.424C198.15 154.911 198.253 155.4 198.492 155.842C198.732 156.284 199.1 156.662 199.559 156.939C200.018 157.216 200.553 157.382 201.108 157.421C201.664 157.459 202.221 157.368 202.724 157.157C203.227 156.947 203.658 156.623 203.973 156.22C204.288 155.816 204.477 155.347 204.52 154.86L218.759 139.689L221.752 128.211Z" fill="#FFB6B6"/>
<path d="M221.62 129.676L222.891 120.543L220.043 116.369C219.481 115.552 218.669 114.888 217.7 114.455C216.73 114.021 215.642 113.833 214.557 113.914C213.088 114.031 211.725 114.634 210.743 115.6C209.761 116.567 209.234 117.824 209.268 119.118C209.375 123.044 210.079 128.007 212.829 129.364L212.857 129.377L221.62 129.676Z" fill="#0185CD"/>
<path d="M241.04 212.197L236.918 213.944L227.281 200.82L233.365 198.243L241.04 212.197Z" fill="#FFB6B6"/>
<path d="M243.261 215.91L230.585 221.28L230.507 221.139C229.876 219.991 229.79 218.669 230.269 217.465C230.747 216.261 231.751 215.273 233.06 214.719L234.527 212.196L239.696 211.908L240.802 211.439L243.261 215.91Z" fill="#2F2E41"/>
<path d="M210.355 217.089L205.778 217.089L203.601 201.594L210.357 201.594L210.355 217.089Z" fill="#FFB6B6"/>
<path d="M210.517 221.28L196.441 221.28V221.123C196.441 219.848 197.018 218.625 198.046 217.724C199.073 216.822 200.467 216.315 201.92 216.315H201.92L204.491 214.603L209.288 216.315L210.517 216.315L210.517 221.28Z" fill="#2F2E41"/>
<path d="M205.819 145.226L200.574 176.97L202.001 181.147L200.128 184.106L202.879 206.371L201.762 208.529L204.882 210.217H211.23L211.567 186.697L213.135 183.244V181.341L216.328 166.999L217.064 189.326L218.083 191.051C221.88 198.61 226.993 201.085 230.609 206.735L236.957 203.717L236.824 201.466C238.1 200.9 234.909 199.243 234.603 198.018L234.048 195.824L230.344 189.092L230.203 186.721L231.216 170.595L230.74 148.88L222.412 143.292L205.819 145.226Z" fill="#2F2E41"/>
<path d="M214.061 106.722C218.616 106.722 222.309 103.481 222.309 99.4831C222.309 95.4854 218.616 92.2447 214.061 92.2447C209.506 92.2447 205.813 95.4854 205.813 99.4831C205.813 103.481 209.506 106.722 214.061 106.722Z" fill="#FFB6B6"/>
<path d="M201.874 158.92L201.754 158.883L203.35 154.33C203.141 153.743 203.101 153.12 203.234 152.516C203.367 151.913 203.669 151.348 204.112 150.872C203.854 150.48 202.79 148.628 204.523 147.054C204.42 146.595 203.898 143.879 205.717 142.552C205.717 142.552 209.247 119.073 211.227 112.872C211.284 112.418 210.821 108.714 213.483 108.569C214.888 108.492 216.995 108.375 220.158 108.196C220.567 108.17 220.806 108.776 221.169 109.761C221.414 110.428 220.151 111.339 220.456 111.324L220.478 111.323L220.499 111.328C223.449 112.022 226.038 113.587 227.828 115.759C229.619 117.931 230.503 120.577 230.332 123.254L229.391 137.282C229.534 137.847 232.528 153.844 231.746 155.562C231.302 156.536 232.059 157.142 232.611 157.585C232.896 157.814 233.102 157.979 233.073 158.159C233.062 158.209 233.036 158.255 232.999 158.293C232.962 158.332 232.914 158.362 232.86 158.38C232.36 158.599 232.636 160.104 232.928 161.002L232.958 161.093L232.861 161.137C232.75 161.187 223.8 157.584 212.926 157.584C208.828 157.584 206.459 160.324 201.874 158.92Z" fill="#0185CD"/>
<path d="M220.597 103.934C220.511 103.895 220.436 103.841 220.376 103.775C220.315 103.709 220.271 103.633 220.247 103.551L220.129 103.131L220.491 103.461C220.684 103.321 220.832 103.138 220.919 102.931C221.007 102.725 221.03 102.501 220.988 102.284C220.945 102.067 220.838 101.864 220.678 101.694C220.517 101.525 220.309 101.396 220.073 101.32C219.914 101.273 219.751 101.238 219.585 101.216C219.412 101.191 219.241 101.155 219.074 101.108C218.684 100.959 218.347 100.72 218.101 100.416C217.854 100.112 217.707 99.755 217.676 99.3829C217.622 98.7269 217.705 98.0678 217.921 97.4378C214.281 97.9284 210.57 97.8305 206.971 97.1488C206.416 97.0462 205.885 96.8629 205.399 96.6064C204.511 96.1439 203.771 95.4905 203.249 94.7076C203.18 94.6021 203.151 94.4799 203.167 94.359C203.183 94.2381 203.243 94.1249 203.337 94.0358C203.403 93.9736 203.482 93.9239 203.571 93.8898C203.659 93.8556 203.754 93.8377 203.851 93.8372L203.719 93.5242C203.678 93.4264 203.667 93.3208 203.688 93.2181C203.708 93.1154 203.759 93.0193 203.836 92.9397C203.913 92.86 204.012 92.7995 204.124 92.7645C204.236 92.7294 204.356 92.721 204.473 92.7401L204.94 92.8168L204.895 92.5446C204.878 92.4432 204.892 92.3396 204.934 92.2442C204.977 92.1488 205.048 92.0649 205.139 92.0006C205.23 91.9364 205.338 91.8941 205.453 91.8779C205.569 91.8617 205.687 91.8721 205.796 91.9082C205.896 91.9413 206.004 91.9549 206.11 91.9481C206.217 91.9414 206.321 91.9144 206.414 91.869C206.508 91.8236 206.589 91.761 206.653 91.6854C206.716 91.6098 206.76 91.523 206.782 91.431L206.943 90.7468L206.959 90.7105C207.749 89.5559 209.266 88.7165 211.121 88.4076C212.776 88.1324 214.466 88.2714 216.1 88.4058C216.793 88.4182 217.474 88.5691 218.091 88.8471C218.37 88.9884 218.599 89.195 218.752 89.4439C218.906 89.6927 218.977 89.974 218.959 90.2564C220.568 89.8222 222.295 90.6873 223.148 91.7774C224.163 93.0739 224.327 94.7003 224.357 95.9723C224.427 98.9792 223.721 101.439 222.259 103.284C222.05 103.598 221.733 103.845 221.354 103.991C221.258 104.019 221.156 104.033 221.055 104.033C220.895 104.034 220.738 103.999 220.597 103.934Z" fill="#2F2E41"/>
<path d="M220.894 132.434L214.84 129.036C210.985 131.376 205.775 139.62 205.775 139.62L192.589 150.311C192.04 150.394 191.525 150.602 191.097 150.915C190.668 151.228 190.341 151.634 190.149 152.093C189.956 152.552 189.905 153.048 189.999 153.53C190.094 154.012 190.332 154.463 190.689 154.839C191.046 155.214 191.51 155.501 192.033 155.669C192.556 155.838 193.121 155.882 193.67 155.798C194.219 155.715 194.733 155.505 195.161 155.192C195.588 154.878 195.914 154.471 196.105 154.011L214.482 142.776L220.894 132.434Z" fill="#FFB6B6"/>
<path d="M220.317 133.813L224.349 125.32L222.89 120.627C222.6 119.706 222.022 118.875 221.222 118.228C220.423 117.58 219.432 117.142 218.363 116.963C216.913 116.728 215.414 116.986 214.172 117.683C212.929 118.381 212.035 119.467 211.67 120.721C210.565 124.526 209.717 129.472 211.948 131.43L211.97 131.45L220.317 133.813Z" fill="#0185CD"/>
</g>
<defs>
<clipPath id="clip0_473_3329">
<rect width="287" height="222" fill="white"/>
</clipPath>
</defs>
</svg>
